<?xml version="1.0" encoding="utf-8"?>
<!-- License: PD. Made by Mary Akveo: https://maryakveo.com/ -->
<svg fill="#000000" width="800px" height="800px" viewBox="0 0 24 24" id="infinite-3" data-name="Flat Color" xmlns="http://www.w3.org/2000/svg" class="icon flat-color">
  <defs>
    <!-- Radial Gradient Definition for background -->
    <radialGradient id="blueBlackGradient" cx="50%" cy="50%" r="50%" fx="50%" fy="50%">
      <stop offset="0%" style="stop-color: #0000ff; stop-opacity: 1" /> <!-- Blue -->
      <stop offset="100%" style="stop-color: #000000; stop-opacity: 1" /> <!-- Black -->
    </radialGradient>
  </defs>
  
  <!-- Radial Background -->
  <rect width="100%" height="100%" fill="url(#blueBlackGradient)" />

  <!-- White Infinity Symbol -->
  <path id="primary" d="M6.73,16.73a4.73,4.73,0,1,1,3.34-8.08l5.28,5.28a2.73,2.73,0,1,0,.15-4,1,1,0,1,1-1.32-1.51,4.73,4.73,0,1,1-.25,6.93L8.65,10.07a2.73,2.73,0,1,0-.15,4,1,1,0,1,1,1.32,1.51A4.76,4.76,0=0,1,6.73,16.73Z" style="fill: white;"></path>
</svg>
